<svg xmlns="http://www.w3.org/2000/svg" viewBox="0 0 128 128" role="img" aria-label="Zeta FD Logo">
  <defs>
    <linearGradient id="zGrad" x1="0" x2="1" y1="0" y2="1">
      <stop offset="0" stop-color="#67e8f9" />
      <stop offset="1" stop-color="#22d3ee" />
    </linearGradient>
    <filter id="shadow" x="-30%" y="-30%" width="160%" height="160%">
      <feDropShadow dx="0" dy="5" stdDeviation="4" flood-color="#0f172a" flood-opacity="0.45"/>
    </filter>
  </defs>

  <g filter="url(#shadow)">
    <rect x="26" y="24" width="76" height="16" rx="6" fill="url(#zGrad)"/>
    <path d="M102 40L42 88H102V104H26V88L86 40H26V24H102Z" fill="url(#zGrad)"/>
  </g>

  <path d="M28 88L48 70L66 82L90 56" fill="none" stroke="#f8fafc" stroke-width="8" stroke-linecap="round" stroke-linejoin="round"/>
  <path d="M90 56L84 58M90 56L88 62" fill="none" stroke="#f8fafc" stroke-width="8" stroke-linecap="round"/>

  <circle cx="33" cy="92" r="11" fill="#1e3a8a" stroke="#60a5fa" stroke-width="3"/>
  <path d="M28.5 86.5h8M28.5 89h6.5M30 91.5h6c1.1 0 2 .9 2 2s-.9 2-2 2h-3M33 85.5v13" stroke="#bfdbfe" stroke-width="1.8" stroke-linecap="round" stroke-linejoin="round" fill="none"/>
</svg>
